<svg width="300.78" height="37.98" viewBox="0 0 79.581 10.049">
  <g fill="#ee7500">
    <path class="burger" d="M30.21.028c-1.091.14-2.086.526-2.85 1.105-.807.615-1.305 1.42-1.41 2.276-.051.413-.022.55.131.645.078.048.11.048 4.935.048 5.365 0 4.95.012 5.049-.153.06-.097.063-.333.012-.64-.119-.686-.423-1.25-.973-1.797-.77-.77-1.785-1.25-3.093-1.462-.336-.056-1.433-.068-1.8-.022zm1.331.647c.978.088 1.812.365 2.53.842.328.219.749.625.931.9.207.314.406.79.406.978v.05h-8.785l.018-.102c.082-.49.462-1.109.931-1.515.98-.851 2.488-1.289 3.97-1.153z"/>
    <path class="burger" d="M28.69 1.838c-.067.06-.08.087-.08.185s.013.124.08.185c.06.053.103.07.176.07s.117-.017.175-.07c.068-.061.08-.088.08-.185s-.012-.124-.08-.185c-.058-.054-.102-.07-.175-.07s-.117.016-.175.07zM33.069 1.838c-.069.06-.08.087-.08.185s.011.124.08.185c.058.053.102.07.175.07s.116-.017.175-.07c.068-.061.08-.088.08-.185s-.012-.124-.08-.185c-.059-.054-.102-.07-.175-.07s-.117.016-.175.07zM30.88 2.081c-.068.06-.08.088-.08.185s.012.124.08.185c.058.053.102.07.175.07s.116-.017.175-.07c.068-.061.08-.088.08-.185s-.012-.124-.08-.185c-.059-.053-.102-.07-.175-.07s-.117.017-.175.07zM27.042 4.324c-.35.031-.693.187-.939.423-.085.08-.16.175-.168.214a.337.337 0 00.239.401c.126.034.236-.002.374-.121.26-.224.594-.31.907-.23.197.052.316.12.516.303.326.296.664.44 1.077.46.492.024.88-.127 1.282-.497.29-.265.635-.357.97-.26.183.053.312.131.516.316.21.19.533.36.783.411.53.112 1.08-.041 1.494-.416.23-.207.425-.302.666-.319.25-.02.472.05.686.212.207.156.233.17.345.17.244 0 .402-.267.287-.486-.09-.173-.518-.44-.839-.526a2.028 2.028 0 00-.802-.002 1.84 1.84 0 00-.733.396c-.1.093-.25.197-.338.239-.145.07-.177.075-.413.075s-.267-.005-.416-.075a1.8 1.8 0 01-.326-.226c-.304-.278-.61-.421-.985-.462-.493-.056-.943.094-1.337.447-.254.226-.438.311-.71.324-.339.017-.48-.044-.862-.368a1.686 1.686 0 00-1.274-.403zM25.646 6.094a.508.508 0 00-.114.114c-.044.066-.047.13-.047.898s.003.832.047.897c.07.107.17.16.299.16.107 0 .116.006.129.067.007.038.048.175.087.304.217.688.764 1.218 1.493 1.447l.22.068h3.246c3.108 0 3.254-.003 3.417-.047a2.273 2.273 0 001.625-1.627l.054-.211h.153c.138 0 .158-.007.243-.083l.09-.083.007-.846c.007-.914.005-.936-.121-1.043l-.073-.061H31.06c-5.193 0-5.346.002-5.414.046zM35.938 7.1l-.007.396h-9.777l-.007-.365c-.003-.2 0-.377.005-.394.01-.027.924-.031 4.903-.031h4.888zm-.53 1.09c0 .067-.136.366-.233.512a1.523 1.523 0 01-.572.509c-.374.194-.14.182-3.585.182-2.865 0-3.074-.002-3.222-.044a1.603 1.603 0 01-1.05-.858 1.156 1.156 0 01-.086-.238l-.015-.088h4.383c2.836 0 4.38.007 4.38.024z"/>
    <text x="-7.045" y="8.798" font-family="'Helvetica Neue'" font-size="11.289" font-style="italic" font-weight="200" letter-spacing="-.529" stroke="#ee7500" stroke-width="0" style="font-variant-caps:normal;font-variant-east-asian:normal;font-variant-ligatures:normal;font-variant-numeric:normal;line-height:1.25" transform="translate(6.989 .262)">
      <tspan x="-7.045" y="8.798" font-weight="300" style="font-variant-caps:normal;font-variant-east-asian:normal;font-variant-ligatures:normal;font-variant-numeric:normal">BEST</tspan>
    </text>
    <text x="29.492" y="8.798" font-family="'Helvetica Neue'" font-size="11.289" font-style="italic" font-weight="200" letter-spacing="-.529" stroke="#ee7500" stroke-width="0" style="font-variant-caps:normal;font-variant-east-asian:normal;font-variant-ligatures:normal;font-variant-numeric:normal;line-height:1.25" transform="translate(6.989 .262)">
      <tspan x="29.492" y="8.798" font-weight="300" style="font-variant-caps:normal;font-variant-east-asian:normal;font-variant-ligatures:normal;font-variant-numeric:normal">BURGER</tspan>
    </text>
  </g>
</svg>
