<svg width="300.78" height="37.98" viewBox="0 0 79.581 10.049">
  <g fill="#ee7500">
    <path class="prefix__burger" d="M30.21.028c-1.091.14-2.086.526-2.85 1.105-.807.615-1.305 1.42-1.41 2.276-.051.413-.022.55.131.645.078.048.11.048 4.935.048 5.365 0 4.95.012 5.049-.153.06-.097.063-.333.012-.64-.119-.686-.423-1.25-.973-1.797-.77-.77-1.785-1.25-3.093-1.462-.336-.056-1.433-.068-1.8-.022zm1.331.647c.978.088 1.812.365 2.53.842.328.219.749.625.931.9.207.314.406.79.406.978v.05h-8.785l.018-.102c.082-.49.462-1.109.931-1.515.98-.851 2.488-1.289 3.97-1.153z"/>
    <path class="prefix__burger" d="M28.69 1.838c-.067.06-.08.087-.08.185s.013.124.08.185c.06.053.103.07.176.07s.117-.017.175-.07c.068-.061.08-.088.08-.185s-.012-.124-.08-.185c-.058-.054-.102-.07-.175-.07s-.117.016-.175.07zm4.379 0c-.069.06-.08.087-.08.185s.011.124.08.185c.058.053.102.07.175.07s.116-.017.175-.07c.068-.061.08-.088.08-.185s-.012-.124-.08-.185c-.059-.054-.102-.07-.175-.07s-.117.016-.175.07zm-2.189.243c-.068.06-.08.088-.08.185s.012.124.08.185c.058.053.102.07.175.07s.116-.017.175-.07c.068-.061.08-.088.08-.185s-.012-.124-.08-.185c-.059-.053-.102-.07-.175-.07s-.117.017-.175.07zm-3.838 2.243c-.35.031-.693.187-.939.423-.085.08-.16.175-.168.214a.337.337 0 00.239.401c.126.034.236-.002.374-.121.26-.224.594-.31.907-.23.197.052.316.12.516.303.326.296.664.44 1.077.46.492.024.88-.127 1.282-.497.29-.265.635-.357.97-.26.183.053.312.131.516.316.21.19.533.36.783.411.53.112 1.08-.041 1.494-.416.23-.207.425-.302.666-.319.25-.02.472.05.686.212.207.156.233.17.345.17a.331.331 0 00.287-.486c-.09-.173-.518-.44-.839-.526a2.028 2.028 0 00-.802-.002 1.84 1.84 0 00-.733.396c-.1.093-.25.197-.338.239-.145.07-.177.075-.413.075s-.267-.005-.416-.075a1.8 1.8 0 01-.326-.226c-.304-.278-.61-.421-.985-.462-.493-.056-.943.094-1.337.447-.254.226-.438.311-.71.324-.339.017-.48-.044-.862-.368a1.686 1.686 0 00-1.274-.403zm-1.396 1.77a.508.508 0 00-.114.114c-.044.066-.047.13-.047.898s.003.832.047.897c.07.107.17.16.299.16.107 0 .116.006.129.067.007.038.048.175.087.304.217.688.764 1.218 1.493 1.447l.22.068h3.246c3.108 0 3.254-.003 3.417-.047a2.273 2.273 0 001.625-1.627l.054-.211h.153c.138 0 .158-.007.243-.083l.09-.083.007-.846c.007-.914.005-.936-.121-1.043l-.073-.061H31.06c-5.193 0-5.346.002-5.414.046zM35.938 7.1l-.007.396h-9.777l-.007-.365c-.003-.2 0-.377.005-.394.01-.027.924-.031 4.903-.031h4.888zm-.53 1.09c0 .067-.136.366-.233.512a1.523 1.523 0 01-.572.509c-.374.194-.14.182-3.585.182-2.865 0-3.074-.002-3.222-.044a1.603 1.603 0 01-1.05-.858 1.156 1.156 0 01-.086-.238l-.015-.088h4.383c2.836 0 4.38.007 4.38.024z"/>
    <g stroke="none" stroke-width="0" style="font-variant-caps:normal;font-variant-east-asian:normal;font-variant-ligatures:normal;font-variant-numeric:normal" aria-label="BEST">
      <path d="M1.762 4.533l.62-2.879h2.484q.305 0 .564.068.271.068.463.226.203.147.316.395.113.237.113.576 0 .417-.17.722-.168.294-.45.486t-.644.293-.756.113zM1.75 1L0 9.06h3.477q.633 0 1.22-.124.587-.136 1.027-.43.451-.293.722-.778t.271-1.197q0-.643-.372-1.106-.361-.474-1.005-.553v-.023q.79-.135 1.265-.666.485-.542.485-1.343 0-.508-.18-.858-.17-.35-.475-.565-.305-.225-.711-.316Q5.329 1 4.877 1zM.915 8.405l.7-3.217h2.427q.372 0 .711.056.35.057.61.226.27.158.429.44.158.271.158.712 0 .474-.204.812t-.53.553-.745.317q-.407.101-.824.101zM8.728 1L7.012 9.06h5.51l.146-.655H7.927l.677-3.183h4.312l.147-.655H8.74l.621-2.913h4.629L14.136 1z" style="font-variant-caps:normal;font-variant-east-asian:normal;font-variant-ligatures:normal;font-variant-numeric:normal"/>
      <path d="M18.994 3.348h.768q.034-.7-.181-1.174-.214-.486-.61-.78-.383-.304-.925-.428Q17.504.83 16.894.83q-.542 0-1.061.136-.508.135-.914.417-.396.271-.644.712-.237.429-.237 1.038 0 .78.44 1.23.44.441 1.152.644l.79.237q.339.102.689.204t.643.27q.294.17.474.44.192.26.192.69 0 .45-.214.778-.203.328-.542.542-.328.203-.734.305t-.801.102q-.542 0-.994-.113-.44-.125-.756-.384-.305-.26-.463-.666-.147-.418-.113-1.005h-.768q-.033.734.181 1.264.214.531.62.881.419.339.983.508.576.158 1.253.158.982 0 1.592-.27t.948-.656q.339-.395.452-.812.124-.43.124-.734 0-.508-.18-.847-.181-.339-.486-.564t-.7-.373q-.384-.147-.802-.27l-.858-.26q-.248-.08-.496-.17-.249-.101-.44-.248-.181-.158-.305-.373-.113-.225-.113-.542 0-.429.18-.733t.474-.497q.294-.203.655-.294.373-.09.745-.09.52 0 .915.09t.666.317q.27.214.406.575.147.35.147.88zM20.416 1l-.135.654h2.765L21.432 9.06h.768l1.614-7.406h2.766L26.715 1z" style="font-variant-caps:normal;font-variant-east-asian:normal;font-variant-ligatures:normal;font-variant-numeric:normal"/>
    </g>
    <g stroke="none" stroke-width="0" style="font-variant-caps:normal;font-variant-east-asian:normal;font-variant-ligatures:normal;font-variant-numeric:normal" aria-label="BURGER">
      <path d="M38.299 4.533l.62-2.879h2.485q.304 0 .564.068.27.068.463.226.203.147.316.395.113.237.113.576 0 .417-.17.722-.169.294-.451.486t-.644.293-.756.113zM38.288 1l-1.75 8.06h3.477q.632 0 1.22-.124.586-.136 1.026-.43.452-.293.723-.778t.27-1.197q0-.643-.372-1.106-.36-.474-1.004-.553v-.023q.79-.135 1.264-.666.485-.542.485-1.343 0-.508-.18-.858-.17-.35-.474-.565-.305-.225-.712-.316Q41.866 1 41.415 1zm-.836 7.405l.7-3.217h2.427q.373 0 .712.056.35.057.61.226.27.158.428.44.158.271.158.712 0 .474-.203.812t-.53.553-.746.317q-.406.101-.824.101zM45.186 1l-1.084 5.26q-.067.384-.067.655 0 .632.248 1.073.248.44.655.71t.914.396q.52.124 1.05.124 1.377 0 2.27-.643.902-.644 1.196-2.066l1.151-5.51h-.767l-1.14 5.453q-.215 1.028-.87 1.58-.643.543-1.738.543-.486 0-.904-.102-.417-.113-.71-.327-.294-.226-.452-.553t-.136-.768q0-.395.08-.7L45.953 1zM52.628 4.827l.677-3.173h2.766q.745 0 1.061.35t.316 1.062q0 .451-.169.778-.158.328-.451.554-.283.214-.667.327-.372.102-.812.102zM52.673 1l-1.716 8.06h.768l.756-3.579h2.845q.621 0 .858.373.248.361.248.937 0 .361-.056.722-.056.362-.056.723v.158l.022.27q.011.136.034.26.023.113.056.136h.79q-.09-.124-.112-.339t-.023-.361q0-.418.057-.835.056-.418.056-.847 0-.553-.226-.937t-.801-.508V5.21q.44-.033.813-.214.383-.18.654-.474t.418-.678q.158-.395.158-.835 0-.993-.542-1.501Q57.132 1 56.105 1zM64.895 3.483h.768q-.046-1.264-.858-1.953-.802-.7-2.337-.7-1.084 0-1.908.418-.813.418-1.366 1.118T58.36 3.98q-.283.903-.283 1.874 0 .779.215 1.4t.62 1.06q.419.441 1.017.678.61.226 1.388.226.96 0 1.682-.35.734-.35 1.242-1.163h.023l-.136 1.355h.52l.846-4.098H62.05l-.158.655h2.777q-.101.632-.372 1.174-.26.542-.678.937-.406.395-.96.62-.541.227-1.207.227-.644 0-1.14-.192-.486-.204-.813-.565-.327-.372-.497-.88-.158-.508-.158-1.13 0-.812.26-1.59t.722-1.378q.463-.61 1.118-.982.666-.373 1.456-.373 1.118 0 1.784.497.666.485.711 1.501zM67.292 1l-1.716 8.06h5.51l.146-.655H66.49l.678-3.183h4.312l.147-.655h-4.324l.621-2.913h4.629L72.699 1zM73.201 4.827l.677-3.173h2.766q.745 0 1.061.35t.316 1.062q0 .451-.169.778-.158.328-.451.554-.283.214-.667.327-.372.102-.812.102zM73.246 1L71.53 9.06h.768l.756-3.579H75.9q.621 0 .858.373.248.361.248.937 0 .361-.056.722-.057.362-.057.723v.158q.012.124.023.27.011.136.034.26.023.113.056.136h.79q-.09-.124-.112-.339t-.023-.361q0-.418.057-.835.056-.418.056-.847 0-.553-.226-.937t-.801-.508V5.21q.44-.033.813-.214.383-.18.654-.474t.418-.678q.158-.395.158-.835 0-.993-.542-1.501Q77.705 1 76.678 1z" style="font-variant-caps:normal;font-variant-east-asian:normal;font-variant-ligatures:normal;font-variant-numeric:normal"/>
    </g>
  </g>
</svg>
