<svg viewBox="0 0 1000 1000"><g fill="#ee7500"><path d="M426.76 59.4c-96.31 12.23-184.03 46.33-251.38 97.38-71.21 54.27-115.18 125.26-124.4 200.76-4.5 36.46-1.93 48.48 11.58 56.84 6.86 4.29 9.65 4.29 435.2 4.29 473.17 0 436.49 1.07 445.28-13.51 5.36-8.58 5.57-29.39 1.07-56.41-10.51-60.49-37.32-110.25-85.8-158.51-67.99-67.99-157.44-110.25-272.83-128.91-29.6-4.93-126.34-6-158.72-1.93zm117.32 57.06c86.23 7.72 159.8 32.17 223.07 74.21 28.96 19.3 66.06 55.12 82.15 79.36 18.23 27.67 35.82 69.71 35.82 86.23v4.5H110.38l1.5-9.01c7.29-43.33 40.75-97.81 82.15-133.63 86.44-75.07 219.43-113.68 350.05-101.66z"/><path d="M292.7 218.98c-6.01 5.36-7.08 7.72-7.08 16.3 0 8.58 1.07 10.94 7.08 16.3 5.15 4.72 9.01 6.22 15.44 6.22s10.29-1.5 15.44-6.22c6.01-5.36 7.08-7.72 7.08-16.3 0-8.58-1.07-10.94-7.08-16.3-5.15-4.72-9.01-6.22-15.44-6.22s-10.29 1.5-15.44 6.22zM678.78 218.98c-6.01 5.36-7.08 7.72-7.08 16.3 0 8.58 1.07 10.94 7.08 16.3 5.15 4.72 9.01 6.22 15.44 6.22s10.29-1.5 15.44-6.22c6.01-5.36 7.08-7.72 7.08-16.3 0-8.58-1.07-10.94-7.08-16.3-5.15-4.72-9.01-6.22-15.44-6.22s-10.29 1.5-15.44 6.22zM485.74 240.43c-6.01 5.36-7.08 7.72-7.08 16.3s1.07 10.94 7.08 16.3c5.15 4.72 9.01 6.22 15.44 6.22s10.29-1.5 15.44-6.22c6-5.36 7.08-7.72 7.08-16.3s-1.07-10.94-7.08-16.3c-5.15-4.72-9.01-6.22-15.44-6.22s-10.29 1.5-15.44 6.22zM147.27 438.19c-30.89 2.79-61.13 16.51-82.79 37.32-7.51 7.08-14.16 15.44-14.8 18.88-3.86 15.23 5.79 31.32 21.02 35.39 11.15 3 20.81-.21 33.03-10.72 22.95-19.73 52.34-27.24 80-20.16 17.37 4.5 27.88 10.51 45.47 26.6 28.74 26.17 58.56 38.82 95.02 40.54 43.33 2.15 77.65-11.15 113.04-43.76 25.52-23.38 55.98-31.53 85.58-22.95 16.09 4.71 27.46 11.58 45.48 27.88 18.45 16.73 46.97 31.74 69.07 36.25 46.76 9.87 95.23-3.65 131.7-36.68 20.38-18.23 37.54-26.6 58.77-28.1 22.09-1.72 41.61 4.29 60.49 18.66 18.23 13.73 20.59 15.01 30.46 15.01 21.45 0 35.39-23.59 25.31-42.9-7.94-15.23-45.69-38.82-74-46.33-18.23-4.72-52.34-4.93-70.78-.22-22.54 5.8-46.99 19.1-64.57 34.97-8.79 8.15-22.09 17.37-29.81 21.02-12.87 6.22-15.66 6.65-36.46 6.65-20.81 0-23.59-.43-36.68-6.65-7.72-3.86-20.59-12.66-28.74-19.95-26.81-24.45-53.84-37.11-86.87-40.75-43.54-4.93-83.22 8.36-117.97 39.47-22.32 19.95-38.62 27.45-62.64 28.53-29.81 1.5-42.25-3.86-75.93-32.39-32.18-27.24-70.78-39.47-112.4-35.61zM24.16 594.34c-3.22 2.15-7.94 6.86-10.08 10.08-3.86 5.79-4.08 11.37-4.08 79.15s.21 73.36 4.08 79.15c6.22 9.44 15.01 14.16 26.38 14.16 9.44 0 10.3.43 11.37 5.79.64 3.43 4.29 15.44 7.72 26.81 19.09 60.7 67.35 107.46 131.7 127.62l19.3 6H496.9c274.12 0 286.99-.21 301.36-4.08 71.21-19.3 125.26-73.57 143.28-143.49l4.72-18.66h13.51c12.23 0 13.94-.64 21.45-7.29l7.94-7.29.64-74.64c.64-80.65.43-82.58-10.72-92.02l-6.44-5.36H501.61c-457.93 0-471.45.21-477.45 4.07zm907.72 88.59l-.64 34.96H68.98l-.64-32.17c-.21-17.59 0-33.25.43-34.75.86-2.36 81.51-2.79 432.41-2.79h431.13l-.43 34.75zm-46.76 96.09c0 6.01-12.01 32.39-20.59 45.26-12.44 18.66-29.38 33.89-50.41 44.83-33.03 17.16-12.44 16.09-316.16 16.09-252.67 0-271.12-.21-284.2-3.86-42.26-11.58-74.86-38.39-92.66-75.71-3.43-7.29-6.86-16.73-7.51-21.02l-1.29-7.72h386.51c250.11-.02 386.31.63 386.31 2.13z"/></g></svg>